<mxfile host="Electron" modified="2024-09-27T14:30:32.141Z" agent="Mozilla/5.0 (Windows NT 10.0; Win64; x64) AppleWebKit/537.36 (KHTML, like Gecko) draw.io/22.0.3 Chrome/114.0.5735.289 Electron/25.8.4 Safari/537.36" etag="rGdj3QV0hKGDWOCQduDF" version="22.0.3" type="device">
  <diagram name="Page-1" id="oPWhTkVTom16ZA0ufJJg">
    <mxGraphModel dx="1084" dy="926" grid="1" gridSize="10" guides="1" tooltips="1" connect="1" arrows="1" fold="1" page="1" pageScale="1" pageWidth="700" pageHeight="250" math="0" shadow="0">
      <root>
        <mxCell id="0" />
        <mxCell id="1" parent="0" />
        <mxCell id="tEuZVTY3Gd_Ye8RJq2sz-4" value="Level 3" style="ellipse;whiteSpace=wrap;html=1;aspect=fixed;verticalAlign=bottom;spacingBottom=3;fillOpacity=30;fillColor=#97D077;" vertex="1" parent="1">
          <mxGeometry x="125" y="1" width="245" height="245" as="geometry" />
        </mxCell>
        <mxCell id="tEuZVTY3Gd_Ye8RJq2sz-3" value="Level 2" style="ellipse;whiteSpace=wrap;html=1;aspect=fixed;verticalAlign=bottom;spacingBottom=3;fillOpacity=30;fillColor=#7EA6E0;" vertex="1" parent="1">
          <mxGeometry x="152.5" y="28.5" width="190" height="190" as="geometry" />
        </mxCell>
        <mxCell id="tEuZVTY3Gd_Ye8RJq2sz-2" value="Level 1" style="ellipse;whiteSpace=wrap;html=1;aspect=fixed;verticalAlign=bottom;spacingBottom=3;fillOpacity=30;fillColor=#A680B8;" vertex="1" parent="1">
          <mxGeometry x="177.5" y="53.5" width="140" height="140" as="geometry" />
        </mxCell>
        <mxCell id="tEuZVTY3Gd_Ye8RJq2sz-1" value="Level 0" style="ellipse;whiteSpace=wrap;html=1;aspect=fixed;verticalAlign=middle;spacingBottom=-1;fillOpacity=30;fillColor=#EA6B66;" vertex="1" parent="1">
          <mxGeometry x="207.5" y="83.5" width="80" height="80" as="geometry" />
        </mxCell>
        <mxCell id="tEuZVTY3Gd_Ye8RJq2sz-5" value="Système d&#39;exploitation (Kernel)" style="text;strokeColor=none;align=center;fillColor=none;html=1;verticalAlign=middle;whiteSpace=wrap;rounded=0;" vertex="1" parent="1">
          <mxGeometry x="397.5" y="33.5" width="170" height="30" as="geometry" />
        </mxCell>
        <mxCell id="tEuZVTY3Gd_Ye8RJq2sz-6" value="" style="endArrow=none;html=1;rounded=0;entryX=0;entryY=0.5;entryDx=0;entryDy=0;endFill=0;startArrow=classic;startFill=1;" edge="1" parent="1" target="tEuZVTY3Gd_Ye8RJq2sz-5">
          <mxGeometry width="50" height="50" relative="1" as="geometry">
            <mxPoint x="263.5" y="106.5" as="sourcePoint" />
            <mxPoint x="287.5" y="83.5" as="targetPoint" />
          </mxGeometry>
        </mxCell>
        <mxCell id="tEuZVTY3Gd_Ye8RJq2sz-7" value="Services (périphériques, drivers, ...)" style="text;strokeColor=none;align=left;fillColor=none;html=1;verticalAlign=middle;whiteSpace=wrap;rounded=0;" vertex="1" parent="1">
          <mxGeometry x="397.5" y="103.5" width="210" height="30" as="geometry" />
        </mxCell>
        <mxCell id="tEuZVTY3Gd_Ye8RJq2sz-8" value="" style="endArrow=none;html=1;rounded=0;entryX=0;entryY=0.5;entryDx=0;entryDy=0;endFill=0;startArrow=classic;startFill=1;" edge="1" parent="1" target="tEuZVTY3Gd_Ye8RJq2sz-7">
          <mxGeometry width="50" height="50" relative="1" as="geometry">
            <mxPoint x="290.5" y="162.5" as="sourcePoint" />
            <mxPoint x="287.5" y="123.5" as="targetPoint" />
          </mxGeometry>
        </mxCell>
        <mxCell id="tEuZVTY3Gd_Ye8RJq2sz-9" value="" style="endArrow=none;html=1;rounded=0;entryX=0;entryY=0.5;entryDx=0;entryDy=0;endFill=0;startArrow=classic;startFill=1;" edge="1" parent="1" target="tEuZVTY3Gd_Ye8RJq2sz-7">
          <mxGeometry width="50" height="50" relative="1" as="geometry">
            <mxPoint x="309.5" y="178.5" as="sourcePoint" />
            <mxPoint x="407.5" y="98.5" as="targetPoint" />
          </mxGeometry>
        </mxCell>
        <mxCell id="tEuZVTY3Gd_Ye8RJq2sz-10" value="" style="endArrow=none;html=1;rounded=0;endFill=0;startArrow=classic;startFill=1;entryX=0;entryY=0.5;entryDx=0;entryDy=0;" edge="1" parent="1" target="tEuZVTY3Gd_Ye8RJq2sz-11">
          <mxGeometry width="50" height="50" relative="1" as="geometry">
            <mxPoint x="314.5" y="208.5" as="sourcePoint" />
            <mxPoint x="407.5" y="173.5" as="targetPoint" />
          </mxGeometry>
        </mxCell>
        <mxCell id="tEuZVTY3Gd_Ye8RJq2sz-11" value="Applications, espace utilisateur" style="text;strokeColor=none;align=left;fillColor=none;html=1;verticalAlign=middle;whiteSpace=wrap;rounded=0;" vertex="1" parent="1">
          <mxGeometry x="397.5" y="143.5" width="170" height="30" as="geometry" />
        </mxCell>
      </root>
    </mxGraphModel>
  </diagram>
</mxfile>
